<?xml version="1.0" standalone="no"?>
<!DOCTYPE svg PUBLIC "-//W3C//DTD SVG 20010904//EN"
 "http://www.w3.org/TR/2001/REC-SVG-20010904/DTD/svg10.dtd">
<svg version="1.0" xmlns="http://www.w3.org/2000/svg"
 width="1200.000000pt" height="1198.000000pt" viewBox="0 0 1200.000000 1198.000000"
 preserveAspectRatio="xMidYMid meet">

<g transform="translate(0.000000,1198.000000) scale(0.100000,-0.100000)"
fill="#000000" stroke="none">
<path d="M5720 11973 c-558 -28 -1083 -124 -1590 -288 -1433 -466 -2644 -1465
-3380 -2789 -344 -618 -583 -1328 -685 -2028 -135 -937 -54 -1878 239 -2763
712 -2150 2581 -3717 4821 -4040 667 -96 1349 -80 2005 46 1035 200 2006 674
2801 1369 214 186 534 520 725 755 165 203 391 535 531 780 839 1467 1019
3241 492 4845 -737 2239 -2711 3837 -5049 4084 -285 31 -656 43 -910 29z m815
-378 c468 -49 855 -134 1284 -280 1202 -410 2253 -1243 2934 -2326 1129 -1794
1154 -4069 67 -5889 -342 -571 -842 -1137 -1364 -1544 -873 -680 -1888 -1078
-3006 -1178 -87 -8 -280 -13 -480 -12 -353 1 -583 18 -870 65 -1464 240 -2746
1018 -3631 2204 -547 734 -917 1623 -1048 2520 -46 318 -55 445 -55 830 0 362
5 454 40 735 104 834 424 1684 904 2400 803 1200 2044 2051 3448 2364 282 63
629 113 912 130 150 9 721 -4 865 -19z"/>
<path d="M7770 7464 c-258 -8 -710 -41 -831 -60 -36 -6 -40 -11 -74 -82 -20
-42 -70 -137 -112 -211 -309 -548 -688 -933 -1128 -1146 -445 -216 -884 -240
-1385 -75 -281 92 -472 187 -1218 607 l-133 74 57 45 c32 24 62 44 68 44 6 0
283 -119 616 -263 l605 -264 58 46 c32 25 68 54 80 63 l22 17 -25 9 c-14 6
-547 249 -1185 542 -638 293 -1165 534 -1171 537 -6 2 -66 -39 -132 -91 -66
-53 -125 -96 -131 -96 -5 0 -168 68 -361 150 -193 83 -355 150 -360 150 -9 0
-1 -261 9 -271 3 -4 84 -41 179 -83 857 -381 1345 -660 2517 -1440 280 -186
591 -389 690 -451 1051 -653 2251 -1177 3434 -1501 238 -65 574 -145 778 -185
l112 -22 188 183 c103 100 189 186 191 190 1 4 -100 10 -225 13 -895 24 -1806
353 -2498 902 -115 91 -308 266 -334 304 l-21 29 76 46 c117 71 325 178 474
244 632 279 1278 387 2118 354 281 -11 542 -29 713 -50 l67 -8 123 116 123
117 -49 7 c-706 98 -1557 121 -2270 60 l-79 -7 99 109 c55 60 111 113 125 118
41 14 1129 13 1335 -2 314 -23 503 -41 768 -73 l259 -32 114 114 c94 93 111
115 97 121 -24 9 -423 63 -648 88 -452 49 -972 74 -1433 68 -160 -2 -291 -1
-290 2 2 3 37 49 78 102 l75 98 240 0 c675 0 1320 -52 1988 -161 l187 -30 120
113 c98 92 117 114 103 120 -47 20 -637 106 -969 142 -416 46 -595 57 -1341
83 l-161 5 56 95 57 95 300 -6 c640 -12 1466 -94 2094 -207 l173 -32 119 119
c65 65 115 121 111 125 -15 13 -592 108 -932 153 -389 53 -849 95 -1250 116
-208 10 -876 20 -1050 14z"/>
</g>
</svg>
